<svg width="576" height="876" viewBox="0 0 576 876" fill="none" xmlns="http://www.w3.org/2000/svg">
<path d="M0.5 16C0.5 7.43958 7.43959 0.5 16 0.5H560C568.56 0.5 575.5 7.43959 575.5 16V860C575.5 868.56 568.56 875.5 560 875.5H16C7.43959 875.5 0.5 868.56 0.5 860V16Z" fill="white"/>
<path d="M0.5 16C0.5 7.43958 7.43959 0.5 16 0.5H560C568.56 0.5 575.5 7.43959 575.5 16V860C575.5 868.56 568.56 875.5 560 875.5H16C7.43959 875.5 0.5 868.56 0.5 860V16Z" stroke="#E6E6E6"/>
<path d="M38.5 42L28.5 52L38.5 62" stroke="black" stroke-width="2" stroke-miterlimit="3" stroke-linecap="round" stroke-linejoin="round"/>
<path d="M71 50.22H62.2V43.88H70.8V45.14H63.72V48.96H71V50.22ZM75.06 60.4H73.54V42.92H75.06V60.4ZM67.28 59.88H65.76V53.56C63.98 53.62 62.54 53.68 60.8 53.68L60.54 52.32C62.5 52.32 64.42 52.3 66.44 52.24C68.72 52.14 71.12 52 72.42 51.84L72.6 53.04C71.56 53.2 69.18 53.4 67.28 53.48V59.88ZM93.8447 58.18H78.0647V56.9H85.1647V53.92H80.0047V48.46H90.3647V45.66H79.9847V44.38H91.8847V49.72H81.5247V52.64H92.3847V53.92H86.6847V56.9H93.8447V58.18Z" fill="black"/>
<path d="M37.032 118.288C37.032 120.016 35.592 121.408 33.36 121.864V123.112C35.04 123.016 36.72 122.872 38.448 122.656C38.52 123.472 38.568 124.288 38.664 125.104C34.872 125.656 28.608 126.016 25.2 126.016C25.08 125.152 24.96 124.216 24.864 123.352C26.64 123.352 28.416 123.328 30.192 123.28V121.888C27.912 121.456 26.448 120.016 26.448 118.288C26.448 116.2 28.56 114.544 31.728 114.544C34.872 114.544 37.032 116.2 37.032 118.288ZM42.648 107.512V128.896H39.456V107.512H42.648ZM38.04 114.184H25.44V111.808H38.04V114.184ZM28.728 110.92V108.544H34.896V110.92H28.728ZM33.816 118.288C33.816 117.424 32.904 116.776 31.728 116.776C30.552 116.776 29.688 117.424 29.688 118.288C29.688 119.128 30.552 119.728 31.728 119.728C32.904 119.728 33.816 119.128 33.816 118.288ZM53.8136 123.328H51.1976V125.896H63.9656V128.368H47.9816V122.128H50.6456V119.68C48.7736 119.752 46.9976 119.776 45.6056 119.776C45.4616 118.912 45.3416 118.12 45.2216 117.256C50.8136 117.256 56.3816 116.944 59.1896 116.56C59.2376 117.376 59.2616 118.168 59.3336 118.984C57.7256 119.248 55.8056 119.392 53.8136 119.536V123.328ZM57.8456 112.432C57.8456 114.808 55.6376 116.44 52.4216 116.44C49.1816 116.44 46.9976 114.808 46.9976 112.456C46.9976 110.056 49.1816 108.376 52.4216 108.376C55.6376 108.376 57.8456 110.056 57.8456 112.432ZM56.6456 122.272V120.088H60.5336V107.512H63.7016V123.976H60.5336V122.272H56.6456ZM54.6536 112.432C54.6536 111.424 53.6696 110.728 52.4216 110.728C51.1496 110.728 50.1896 111.424 50.1896 112.432C50.1896 113.44 51.1496 114.088 52.4216 114.088C53.6696 114.088 54.6536 113.44 54.6536 112.432ZM86.0273 118.192H82.9553V128.896H79.7873V107.512H82.9553V115.576H86.0273V118.192ZM77.4113 109.72C77.2433 115.984 74.6993 121.384 67.7393 125.2L65.9633 122.704C70.6193 120.52 73.6193 116.416 74.0513 112.336H67.2593V109.72H77.4113ZM104.753 128.632H90.4249V119.8H93.6169V121.888H101.561V119.8H104.753V128.632ZM101.561 126.136V124.336H93.6169V126.136H101.561ZM104.777 118.84H101.561V107.512H104.777V118.84ZM87.6889 113.44C87.6889 110.464 90.1849 108.472 93.4009 108.472C96.6649 108.472 99.1849 110.464 99.1849 113.44C99.1849 116.416 96.6649 118.456 93.4009 118.456C90.1849 118.456 87.6889 116.416 87.6889 113.44ZM90.7369 113.464C90.7369 114.856 91.8649 115.864 93.4009 115.864C94.9849 115.864 96.1369 114.856 96.1369 113.464C96.1369 112.072 94.9609 111.016 93.4009 111.016C91.8649 111.016 90.7369 112.048 90.7369 113.464Z" fill="black"/>
<path d="M36.032 174.12H34.816V160.136H36.032V174.12ZM31.92 161.624C31.856 166.168 29.072 169.64 25.456 171.352L24.752 170.392C28.288 168.84 30.368 165.8 30.624 162.648H25.264V161.624H31.92ZM49.4918 166.232H45.3478V167.976H51.0758V169H38.4518V167.976H44.1318V166.232H40.0518V160.616H41.2678V162.488H48.2598V160.616H49.4918V166.232ZM49.6358 173.672H40.0678V169.912H41.2838V172.664H49.6358V173.672ZM48.2598 165.224V163.48H41.2678V165.224H48.2598ZM68.0346 171.464C68.0346 173.096 66.3386 174.12 63.3306 174.12C60.3386 174.12 58.6586 173.096 58.6586 171.464C58.6586 169.816 60.3386 168.792 63.3306 168.792C66.3386 168.792 68.0346 169.816 68.0346 171.464ZM56.8666 162.328V161.304H64.4346V162.328H61.2826C61.2826 162.6 61.2826 162.92 61.2986 163.08C61.4106 164.984 63.2026 166.504 64.9146 167.016L64.1946 167.992C62.7386 167.416 61.2346 166.104 60.6586 164.84C60.2746 166.152 58.5946 167.832 57.0906 168.488L56.4346 167.512C58.1946 166.84 59.9706 165.064 60.0346 163.08C60.0506 162.92 60.0506 162.584 60.0506 162.328H56.8666ZM63.3306 169.816C61.1866 169.816 59.8906 170.408 59.8906 171.464C59.8906 172.504 61.1866 173.096 63.3306 173.096C65.5226 173.096 66.7866 172.504 66.7866 171.464C66.7866 170.408 65.5226 169.816 63.3306 169.816ZM66.7066 164.792H63.8906V163.768H66.7066V160.136H67.9226V168.824H66.7066V164.792ZM81.4304 168.504H77.2384V171.352H82.9664V172.376H70.3424V171.352H76.0224V168.504H71.8624V161.096H73.0944V163.672H80.2144V161.096H81.4304V168.504ZM80.2144 167.496V164.68H73.0944V167.496H80.2144Z" fill="black"/>
<path d="M516.736 172.768H509.632V170.164H515.44V169.132H509.596V168.388H516.352V170.86H510.544V172.012H516.736V172.768ZM514.408 166.48L514.492 167.188C513.724 167.308 512.488 167.392 511.336 167.464C510.184 167.524 508.996 167.56 508.06 167.56L507.928 166.78C508.396 166.78 508.9 166.78 509.38 166.768L509.116 164.392L510.04 164.284L510.208 166.756C510.664 166.744 511.108 166.72 511.54 166.696C511.624 166.696 511.72 166.696 511.816 166.684L511.996 164.26L512.896 164.368L512.632 166.648C513.376 166.612 514 166.552 514.408 166.48ZM516.34 167.872H515.428V162.352H516.34V167.872ZM513.916 163.78H508.216V163.036H513.916V163.78ZM523.327 172.852H522.415V169.048H518.155V168.28H527.623V169.048H523.327V172.852ZM527.239 166.384L526.807 167.164C525.235 166.84 523.519 165.856 522.883 164.632C522.379 165.856 520.591 166.876 518.995 167.188L518.551 166.408C520.567 166.144 522.415 164.812 522.415 163.384V162.712H523.375V163.384C523.375 164.812 525.391 166.156 527.239 166.384ZM541.446 167.356H539.754V172.84H538.842V162.352H539.754V166.588H541.446V167.356ZM537.846 169.588L537.27 170.284C536.19 169.54 535.014 168.292 534.594 167.02C534.222 168.328 533.202 169.66 531.966 170.524L531.378 169.816C532.902 168.88 534.138 166.996 534.138 165.136V163.276H535.074V165.112C535.074 167.02 536.394 168.736 537.846 169.588ZM551.757 166.324H550.137V169.096H549.225V162.352H550.137V165.556H551.757V166.324ZM550.257 171.016C550.257 172.132 549.045 172.828 546.777 172.828C544.509 172.828 543.309 172.144 543.309 171.016C543.309 169.876 544.509 169.18 546.777 169.18C549.045 169.18 550.257 169.888 550.257 171.016ZM546.777 169.96C545.193 169.96 544.257 170.368 544.257 171.016C544.257 171.688 545.193 172.072 546.777 172.072C548.361 172.072 549.309 171.7 549.309 171.016C549.309 170.344 548.361 169.96 546.777 169.96ZM546.549 163.348H543.525V162.58H546.549V163.348ZM548.037 164.812H542.025V164.056H548.037V164.812ZM547.401 166.996C547.401 168.04 546.381 168.712 545.013 168.712C543.645 168.712 542.625 168.04 542.625 166.996C542.625 165.916 543.633 165.268 545.013 165.268C546.381 165.268 547.401 165.916 547.401 166.996ZM546.489 166.996C546.489 166.36 545.817 165.988 545.013 165.988C544.221 165.988 543.525 166.36 543.525 166.996C543.525 167.596 544.233 167.992 545.013 167.992C545.817 167.992 546.489 167.596 546.489 166.996Z" fill="#FF3636"/>
<rect x="24.5" y="187.5" width="527" height="55" rx="5.5" fill="white"/>
<rect x="24.5" y="187.5" width="527" height="55" rx="5.5" stroke="#E0E0E0"/>
<path d="M52.112 223.12H50.896V209.136H52.112V223.12ZM41.072 215.12C41.072 212.176 42.384 210.192 44.672 210.192C46.992 210.192 48.288 212.176 48.288 215.136C48.288 218.096 46.992 220.08 44.672 220.08C42.384 220.08 41.072 218.096 41.072 215.12ZM47.136 215.136C47.136 212.832 46.16 211.248 44.672 211.248C43.2 211.248 42.224 212.832 42.224 215.136C42.224 217.424 43.2 219.024 44.672 219.024C46.16 219.024 47.136 217.424 47.136 215.136ZM60.4198 219.44H54.8678V210.672H60.4198V214.352H62.3878V209.472H63.5718V222.416H62.3878V215.376H60.4198V219.44ZM59.2358 218.432V211.68H56.0518V218.432H59.2358ZM66.2438 223.12H65.0438V209.136H66.2438V223.12ZM79.7195 216.208H78.5035V209.136H79.7195V216.208ZM80.2315 222.928H70.6635V219.392H78.5035V217.936H70.6155V216.944H79.7195V220.336H71.8795V221.936H80.2315V222.928ZM72.3115 209.568C74.3115 209.568 75.9275 210.832 75.9275 212.736C75.9275 214.624 74.3115 215.856 72.3115 215.856C70.3115 215.856 68.6635 214.64 68.6635 212.736C68.6635 210.848 70.2955 209.568 72.3115 209.568ZM72.3115 210.624C70.9355 210.624 69.8475 211.472 69.8475 212.72C69.8475 213.968 70.9195 214.8 72.3115 214.8C73.7675 214.8 74.7435 213.968 74.7435 212.736C74.7435 211.488 73.7675 210.624 72.3115 210.624Z" fill="#999999"/>
<rect x="24.5" y="251.5" width="527" height="55" rx="5.5" fill="white"/>
<rect x="24.5" y="251.5" width="527" height="55" rx="5.5" stroke="#E0E0E0"/>
<path d="M52.096 287.12H50.88V273.136H52.096V287.12ZM47.968 283.648H41.36V274.32H42.56V277.904H46.752V274.32H47.968V283.648ZM46.752 282.624V278.912H42.56V282.624H46.752ZM65.8758 280.304H64.6598V273.136H65.8758V280.304ZM66.3878 287.024H56.8358V283.472H64.6598V282.032H56.8198V281.04H65.8758V284.4H58.0518V286.016H66.3878V287.024ZM61.6998 279.664H55.1718V274.016H61.6998V279.664ZM60.4838 278.656V275.024H56.3878V278.656H60.4838ZM78.5035 278.16H76.0555V277.136H78.5035V273.136H79.7195V283.328H78.5035V278.16ZM80.0715 286.656H70.6475V282.4H71.8635V285.648H80.0715V286.656ZM75.3195 281.168H68.8235V274.064H70.0555V276.608H74.0875V274.064H75.3195V281.168ZM74.0875 280.16V277.616H70.0555V280.16H74.0875ZM92.9553 280.208C92.9553 281.648 91.4353 282.496 89.0513 282.592V284.448H94.7633V285.472H82.1393V284.448H87.8353V282.592C85.4673 282.48 83.9793 281.632 83.9793 280.208C83.9793 278.656 85.7393 277.808 88.4593 277.808C91.1953 277.808 92.9553 278.656 92.9553 280.208ZM91.6753 280.208C91.6753 279.216 90.1073 278.8 88.4593 278.8C86.8273 278.8 85.2593 279.216 85.2593 280.208C85.2593 281.2 86.8273 281.616 88.4593 281.616C90.1233 281.616 91.6753 281.2 91.6753 280.208ZM94.1713 277.056H82.7473V276.032H94.1713V277.056ZM90.9553 274.88H85.9153V273.824H90.9553V274.88Z" fill="#999999"/>
<rect x="24.5" y="315.5" width="527" height="55" rx="5.5" fill="white"/>
<rect x="24.5" y="315.5" width="527" height="55" rx="5.5" stroke="#E0E0E0"/>
<path d="M52.096 351.12H50.88V337.136H52.096V351.12ZM47.968 347.648H41.36V338.32H42.56V341.904H46.752V338.32H47.968V347.648ZM46.752 346.624V342.912H42.56V346.624H46.752ZM65.8758 344.304H64.6598V337.136H65.8758V344.304ZM66.3878 351.024H56.8358V347.472H64.6598V346.032H56.8198V345.04H65.8758V348.4H58.0518V350.016H66.3878V351.024ZM61.6998 343.664H55.1718V338.016H61.6998V343.664ZM60.4838 342.656V339.024H56.3878V342.656H60.4838ZM78.5035 342.16H76.0555V341.136H78.5035V337.136H79.7195V347.328H78.5035V342.16ZM80.0715 350.656H70.6475V346.4H71.8635V349.648H80.0715V350.656ZM75.3195 345.168H68.8235V338.064H70.0555V340.608H74.0875V338.064H75.3195V345.168ZM74.0875 344.16V341.616H70.0555V344.16H74.0875ZM92.9553 344.208C92.9553 345.648 91.4353 346.496 89.0513 346.592V348.448H94.7633V349.472H82.1393V348.448H87.8353V346.592C85.4673 346.48 83.9793 345.632 83.9793 344.208C83.9793 342.656 85.7393 341.808 88.4593 341.808C91.1953 341.808 92.9553 342.656 92.9553 344.208ZM91.6753 344.208C91.6753 343.216 90.1073 342.8 88.4593 342.8C86.8273 342.8 85.2593 343.216 85.2593 344.208C85.2593 345.2 86.8273 345.616 88.4593 345.616C90.1233 345.616 91.6753 345.2 91.6753 344.208ZM94.1713 341.056H82.7473V340.032H94.1713V341.056ZM90.9553 338.88H85.9153V337.824H90.9553V338.88ZM108.954 345.776C107.946 345.888 106.266 346.064 104.618 346.144C103.034 346.24 101.114 346.32 100.138 346.32L99.9461 345.312C100.954 345.312 102.378 345.28 103.802 345.216V344.272C102.33 344.128 101.21 343.568 101.21 342.432C101.21 341.136 102.666 340.544 104.442 340.544C106.218 340.544 107.706 341.12 107.706 342.416C107.706 343.552 106.538 344.144 105.034 344.272V345.152C106.506 345.088 108.026 344.96 108.842 344.832L108.954 345.776ZM113.082 342.8H110.97V346.432H109.738V337.136H110.97V341.776H113.082V342.8ZM101.802 347.168H110.97V351.216H109.738V348.176H101.802V347.168ZM108.474 340.08H100.442V339.088H108.474V340.08ZM106.538 342.416C106.538 341.776 105.61 341.456 104.442 341.456C103.242 341.456 102.362 341.776 102.362 342.416C102.362 343.088 103.258 343.392 104.442 343.392C105.61 343.392 106.538 343.072 106.538 342.416ZM106.378 338.32H102.538V337.312H106.378V338.32ZM125.454 347.344H124.238V337.136H125.454V347.344ZM125.806 350.656H116.334V346.336H117.55V349.648H125.806V350.656ZM118.094 338.064C120.222 338.064 121.87 339.472 121.87 341.552C121.87 343.632 120.238 345.024 118.11 345.024C115.982 345.024 114.334 343.648 114.334 341.568C114.334 339.488 115.982 338.064 118.094 338.064ZM118.094 339.12C116.622 339.12 115.502 340.128 115.502 341.552C115.502 342.96 116.638 343.952 118.11 343.952C119.646 343.952 120.718 342.96 120.718 341.568C120.718 340.128 119.646 339.12 118.094 339.12Z" fill="#999999"/>
<path d="M36.032 406.12H34.816V398.152H36.032V406.12ZM26.72 406.968H36.048V412.12H34.816V407.976H26.72V406.968ZM33.392 403.256L33.52 404.312C31.968 404.648 28.56 404.984 26.192 404.984H25.392V398.936H26.624V403.912C28.88 403.912 31.6 403.592 33.392 403.256ZM50.2438 412.12H49.0438V398.136H50.2438V412.12ZM46.2438 403.832H42.9638V402.824H46.2438V398.472H47.4438V411.4H46.2438V403.832ZM45.0278 407L45.1718 408.056C44.0198 408.296 41.7318 408.536 39.9718 408.536H39.2038V399.592H40.4198V407.464C41.9398 407.464 44.1798 407.192 45.0278 407ZM63.7195 406.12H62.5035V398.136H63.7195V406.12ZM63.7355 411.928H54.6795V406.856H63.7355V411.928ZM62.5195 410.92V407.864H55.8955V410.92H62.5195ZM56.2635 398.92C58.2475 398.92 59.8795 400.264 59.8795 402.28C59.8795 404.328 58.2475 405.608 56.2635 405.608C54.2795 405.608 52.6315 404.328 52.6315 402.296C52.6315 400.264 54.2795 398.92 56.2635 398.92ZM56.2635 399.912C54.8555 399.912 53.8155 400.904 53.8155 402.28C53.8155 403.672 54.8555 404.616 56.2635 404.616C57.7195 404.616 58.7115 403.672 58.7115 402.296C58.7115 400.904 57.7355 399.912 56.2635 399.912Z" fill="black"/>
<path d="M516.34 407.972H515.428V403.772H513.196V403.004H515.428V400.352H516.34V407.972ZM516.568 410.516H509.596V407.312H510.508V409.76H516.568V410.516ZM513.904 405.692L513.388 406.412C512.332 405.944 511.264 404.96 510.82 403.856C510.508 404.984 509.38 406.124 508.24 406.7L507.676 405.992C509.068 405.38 510.34 403.952 510.34 402.26V400.952H511.264V402.224C511.264 403.976 512.668 405.236 513.904 405.692ZM526.999 406.628H526.087V403.868H524.755V406.568H523.879V400.544H524.755V403.112H526.087V400.352H526.999V406.628ZM519.547 405.248H519.847C521.047 405.248 522.259 405.164 523.075 404.984L523.207 405.74C522.175 405.944 520.759 406.028 519.319 406.028H518.647V401.132H522.703V401.888H519.547V403.136H522.535V403.868H519.547V405.248ZM519.919 407.18H526.999V410.84H526.075V407.948H519.919V407.18ZM541.446 405.356H539.754V410.84H538.842V400.352H539.754V404.588H541.446V405.356ZM537.846 407.588L537.27 408.284C536.19 407.54 535.014 406.292 534.594 405.02C534.222 406.328 533.202 407.66 531.966 408.524L531.378 407.816C532.902 406.88 534.138 404.996 534.138 403.136V401.276H535.074V403.112C535.074 405.02 536.394 406.736 537.846 407.588ZM551.757 404.324H550.137V407.096H549.225V400.352H550.137V403.556H551.757V404.324ZM550.257 409.016C550.257 410.132 549.045 410.828 546.777 410.828C544.509 410.828 543.309 410.144 543.309 409.016C543.309 407.876 544.509 407.18 546.777 407.18C549.045 407.18 550.257 407.888 550.257 409.016ZM546.777 407.96C545.193 407.96 544.257 408.368 544.257 409.016C544.257 409.688 545.193 410.072 546.777 410.072C548.361 410.072 549.309 409.7 549.309 409.016C549.309 408.344 548.361 407.96 546.777 407.96ZM546.549 401.348H543.525V400.58H546.549V401.348ZM548.037 402.812H542.025V402.056H548.037V402.812ZM547.401 404.996C547.401 406.04 546.381 406.712 545.013 406.712C543.645 406.712 542.625 406.04 542.625 404.996C542.625 403.916 543.633 403.268 545.013 403.268C546.381 403.268 547.401 403.916 547.401 404.996ZM546.489 404.996C546.489 404.36 545.817 403.988 545.013 403.988C544.221 403.988 543.525 404.36 543.525 404.996C543.525 405.596 544.233 405.992 545.013 405.992C545.817 405.992 546.489 405.596 546.489 404.996Z" fill="#999999"/>
<rect x="24.5" y="425.5" width="527" height="55" rx="5.5" fill="white"/>
<rect x="24.5" y="425.5" width="527" height="55" rx="5.5" stroke="#E0E0E0"/>
<path d="M52.032 455.12H50.816V447.152H52.032V455.12ZM42.72 455.968H52.048V461.12H50.816V456.976H42.72V455.968ZM49.392 452.256L49.52 453.312C47.968 453.648 44.56 453.984 42.192 453.984H41.392V447.936H42.624V452.912C44.88 452.912 47.6 452.592 49.392 452.256ZM66.2438 461.12H65.0438V447.136H66.2438V461.12ZM62.2438 452.832H58.9638V451.824H62.2438V447.472H63.4438V460.4H62.2438V452.832ZM61.0278 456L61.1718 457.056C60.0198 457.296 57.7318 457.536 55.9718 457.536H55.2038V448.592H56.4198V456.464C57.9398 456.464 60.1798 456.192 61.0278 456ZM79.7195 455.12H78.5035V447.136H79.7195V455.12ZM79.7355 460.928H70.6795V455.856H79.7355V460.928ZM78.5195 459.92V456.864H71.8955V459.92H78.5195ZM72.2635 447.92C74.2475 447.92 75.8795 449.264 75.8795 451.28C75.8795 453.328 74.2475 454.608 72.2635 454.608C70.2795 454.608 68.6315 453.328 68.6315 451.296C68.6315 449.264 70.2795 447.92 72.2635 447.92ZM72.2635 448.912C70.8555 448.912 69.8155 449.904 69.8155 451.28C69.8155 452.672 70.8555 453.616 72.2635 453.616C73.7195 453.616 74.7115 452.672 74.7115 451.296C74.7115 449.904 73.7355 448.912 72.2635 448.912Z" fill="#999999"/>
<rect x="24.5" y="489.5" width="95" height="39" rx="3.5" fill="white"/>
<rect x="24.5" y="489.5" width="95" height="39" rx="3.5" stroke="#999999"/>
<path d="M54.6106 511.536C53.7146 511.662 52.3286 511.774 50.8866 511.858C49.5006 511.914 48.0726 511.97 46.9666 511.984L46.7986 511.046C47.3866 511.046 48.0026 511.046 48.6186 511.032L48.1846 505.894L49.2626 505.796L49.5986 511.018C50.0606 511.004 50.5226 510.976 50.9706 510.948C51.1386 510.948 51.2786 510.934 51.4326 510.934L51.7966 505.782L52.8606 505.88L52.3986 510.864C53.2526 510.808 53.9946 510.752 54.5266 510.668L54.6106 511.536ZM56.3606 502.744V507.63H58.3626V508.526H56.3606V514.98H55.2966V502.744H56.3606ZM53.7986 504.928H47.1486V504.032H53.7986V504.928ZM69.0759 508.932H68.0119V502.744H69.0759V508.932ZM69.5239 514.812H61.1519V511.718H68.0119V510.444H61.1099V509.576H69.0759V512.544H62.2159V513.944H69.5239V514.812ZM62.5939 503.122C64.3439 503.122 65.7579 504.228 65.7579 505.894C65.7579 507.546 64.3439 508.624 62.5939 508.624C60.8439 508.624 59.4019 507.56 59.4019 505.894C59.4019 504.242 60.8299 503.122 62.5939 503.122ZM62.5939 504.046C61.3899 504.046 60.4379 504.788 60.4379 505.88C60.4379 506.972 61.3759 507.7 62.5939 507.7C63.8679 507.7 64.7219 506.972 64.7219 505.894C64.7219 504.802 63.8679 504.046 62.5939 504.046ZM84.8669 511.634H83.8029V506.734H81.1989V505.838H83.8029V502.744H84.8669V511.634ZM85.1329 514.602H76.9989V510.864H78.0629V513.72H85.1329V514.602ZM82.0249 508.974L81.4229 509.814C80.1909 509.268 78.9449 508.12 78.4269 506.832C78.0629 508.148 76.7469 509.478 75.4169 510.15L74.7589 509.324C76.3829 508.61 77.8669 506.944 77.8669 504.97V503.444H78.9449V504.928C78.9449 506.972 80.5829 508.442 82.0249 508.974ZM97.3021 510.066H96.2381V506.846H94.6841V509.996H93.6621V502.968H94.6841V505.964H96.2381V502.744H97.3021V510.066ZM88.6081 508.456H88.9581C90.3581 508.456 91.7721 508.358 92.7241 508.148L92.8781 509.03C91.6741 509.268 90.0221 509.366 88.3421 509.366H87.5581V503.654H92.2901V504.536H88.6081V505.992H92.0941V506.846H88.6081V508.456ZM89.0421 510.71H97.3021V514.98H96.2241V511.606H89.0421V510.71Z" fill="black"/>
<rect x="128.5" y="489.5" width="423" height="39" rx="3.5" fill="white"/>
<rect x="128.5" y="489.5" width="423" height="39" rx="3.5" stroke="#E6E6E6"/>
<path d="M152.176 511.036C151.28 511.162 149.894 511.274 148.452 511.358C147.066 511.414 145.638 511.47 144.532 511.484L144.364 510.546C144.952 510.546 145.568 510.546 146.184 510.532L145.75 505.394L146.828 505.296L147.164 510.518C147.626 510.504 148.088 510.476 148.536 510.448C148.704 510.448 148.844 510.434 148.998 510.434L149.362 505.282L150.426 505.38L149.964 510.364C150.818 510.308 151.56 510.252 152.092 510.168L152.176 511.036ZM153.926 502.244V507.13H155.928V508.026H153.926V514.48H152.862V502.244H153.926ZM151.364 504.428H144.714V503.532H151.364V504.428ZM166.641 508.432H165.577V502.244H166.641V508.432ZM167.089 514.312H158.717V511.218H165.577V509.944H158.675V509.076H166.641V512.044H159.781V513.444H167.089V514.312ZM160.159 502.622C161.909 502.622 163.323 503.728 163.323 505.394C163.323 507.046 161.909 508.124 160.159 508.124C158.409 508.124 156.967 507.06 156.967 505.394C156.967 503.742 158.395 502.622 160.159 502.622ZM160.159 503.546C158.955 503.546 158.003 504.288 158.003 505.38C158.003 506.472 158.941 507.2 160.159 507.2C161.433 507.2 162.287 506.472 162.287 505.394C162.287 504.302 161.433 503.546 160.159 503.546ZM179.805 508.432H168.759V507.536H179.805V508.432ZM178.573 504.54C178.573 505.884 176.949 506.654 174.289 506.654C171.657 506.654 170.033 505.884 170.033 504.54C170.033 503.196 171.657 502.412 174.289 502.412C176.949 502.412 178.573 503.196 178.573 504.54ZM174.289 503.28C172.371 503.28 171.125 503.77 171.125 504.54C171.125 505.296 172.371 505.772 174.289 505.772C176.235 505.772 177.495 505.296 177.495 504.54C177.495 503.77 176.235 503.28 174.289 503.28ZM178.825 514.368H170.047V511.456H177.355V510.378H170.019V509.524H178.419V512.268H171.111V513.5H178.825V514.368ZM194.546 511.134H193.482V506.234H190.878V505.338H193.482V502.244H194.546V511.134ZM194.812 514.102H186.678V510.364H187.742V513.22H194.812V514.102ZM191.704 508.474L191.102 509.314C189.87 508.768 188.624 507.62 188.106 506.332C187.742 507.648 186.426 508.978 185.096 509.65L184.438 508.824C186.062 508.11 187.546 506.444 187.546 504.47V502.944H188.624V504.428C188.624 506.472 190.262 507.942 191.704 508.474ZM206.981 509.566H205.917V506.346H204.363V509.496H203.341V502.468H204.363V505.464H205.917V502.244H206.981V509.566ZM198.287 507.956H198.637C200.037 507.956 201.451 507.858 202.403 507.648L202.557 508.53C201.353 508.768 199.701 508.866 198.021 508.866H197.237V503.154H201.969V504.036H198.287V505.492H201.773V506.346H198.287V507.956ZM198.721 510.21H206.981V514.48H205.903V511.106H198.721V510.21ZM219.094 514.48H218.044V508.138H216.574V513.864H215.538V502.538H216.574V507.242H218.044V502.244H219.094V514.48ZM214.614 509.258C214.614 510.728 213.522 511.694 211.94 511.694C210.372 511.694 209.266 510.658 209.266 509.258C209.266 507.774 210.372 506.808 211.94 506.808C213.522 506.808 214.614 507.788 214.614 509.258ZM213.592 509.258C213.592 508.32 212.906 507.704 211.94 507.704C210.974 507.704 210.302 508.32 210.302 509.258C210.302 510.21 210.974 510.812 211.94 510.812C212.906 510.812 213.592 510.182 213.592 509.258ZM214.838 506.108H208.748V505.226H214.838V506.108ZM213.522 504.106H210.176V503.182H213.522V504.106ZM231.417 507.172L230.913 508.068C228.911 507.718 226.965 506.486 226.405 505.338C225.915 506.486 224.011 507.746 221.925 508.096L221.435 507.2C223.437 506.99 225.803 505.702 225.859 503.994H221.897V503.112H230.913V503.994H226.979C227.035 505.716 229.541 506.962 231.417 507.172ZM226.923 514.48H225.859V510.098H220.889V509.202H231.935V510.098H226.923V514.48ZM243.363 514.48H242.313V502.244H243.363V514.48ZM240.941 513.864H239.905V507.55H237.735V506.654H239.905V502.538H240.941V513.864ZM239.163 510.616L238.505 511.4C237.567 510.728 236.279 509.272 235.887 507.886C235.621 509.286 234.613 510.882 233.395 511.764L232.737 510.966C234.123 510.084 235.355 507.998 235.355 505.604V503.378H236.405V505.576C236.405 507.956 237.833 509.734 239.163 510.616ZM255.042 506.234C255.042 508.124 253.278 509.384 250.618 509.384C247.986 509.384 246.222 508.124 246.222 506.234C246.222 504.344 247.986 503.056 250.618 503.056C253.292 503.056 255.042 504.344 255.042 506.234ZM254.02 506.234C254.02 504.862 252.676 503.938 250.618 503.938C248.588 503.938 247.244 504.862 247.244 506.234C247.244 507.606 248.588 508.53 250.618 508.53C252.662 508.53 254.02 507.606 254.02 506.234ZM256.162 512.926H245.116V512.03H247.846V509.748L248.91 509.72V512.03H252.326V509.72L253.39 509.748V512.03H256.162V512.926ZM257.285 513.262V512.016H258.503V513.262H257.285Z" fill="#999999"/>
<path d="M25.008 558.392V557.368H32.528V558.392H29.392C29.392 559.032 29.392 559.32 29.408 559.528C29.52 561.32 31.248 562.92 32.848 563.448L32.16 564.424C30.832 563.88 29.344 562.552 28.768 561.288C28.384 562.584 26.768 564.104 25.264 564.76L24.56 563.816C26.32 563.128 28.08 561.352 28.144 559.512C28.16 559.32 28.16 559.016 28.16 558.392H25.008ZM36.032 566.376H34.816V561.048H32.032V560.024H34.816V556.136H36.032V566.376ZM36.336 569.656H26.912V565.352H28.128V568.632H36.336V569.656ZM47.1718 566.344L47.2517 567.336C46.1638 567.464 44.3078 567.64 42.6278 567.752C41.0758 567.848 39.6038 567.848 38.4358 567.848L38.2118 566.792C39.2038 566.824 40.6278 566.824 41.9718 566.776V565.384C40.3558 565.208 39.2998 564.344 39.2998 563.08C39.2998 561.624 40.6438 560.712 42.6118 560.712C44.5958 560.712 45.9237 561.608 45.9237 563.08C45.9237 564.36 44.8518 565.224 43.2038 565.384V566.712C44.7558 566.616 46.2438 566.488 47.1718 566.344ZM51.4758 563.384H49.2358V570.12H48.0038V556.136H49.2358V562.344H51.4758V563.384ZM44.7398 563.08C44.7398 562.264 43.8918 561.72 42.6118 561.72C41.3478 561.72 40.4678 562.264 40.4678 563.08C40.4678 563.864 41.3478 564.424 42.6118 564.424C43.8918 564.424 44.7398 563.864 44.7398 563.08ZM46.8198 559.992H38.4998V558.984H46.8198V559.992ZM44.5958 557.848H40.5798V556.824H44.5958V557.848ZM62.5035 561.16H60.0555V560.136H62.5035V556.136H63.7195V566.328H62.5035V561.16ZM64.0715 569.656H54.6475V565.4H55.8635V568.648H64.0715V569.656ZM59.3195 564.168H52.8235V557.064H54.0555V559.608H58.0875V557.064H59.3195V564.168ZM58.0875 563.16V560.616H54.0555V563.16H58.0875ZM76.9553 563.208C76.9553 564.648 75.4353 565.496 73.0513 565.592V567.448H78.7633V568.472H66.1393V567.448H71.8353V565.592C69.4673 565.48 67.9793 564.632 67.9793 563.208C67.9793 561.656 69.7393 560.808 72.4593 560.808C75.1953 560.808 76.9553 561.656 76.9553 563.208ZM75.6753 563.208C75.6753 562.216 74.1073 561.8 72.4593 561.8C70.8273 561.8 69.2593 562.216 69.2593 563.208C69.2593 564.2 70.8273 564.616 72.4593 564.616C74.1233 564.616 75.6753 564.2 75.6753 563.208ZM78.1713 560.056H66.7473V559.032H78.1713V560.056ZM74.9553 557.88H69.9153V556.824H74.9553V557.88Z" fill="black"/>
<path d="M516.34 565.972H515.428V561.772H513.196V561.004H515.428V558.352H516.34V565.972ZM516.568 568.516H509.596V565.312H510.508V567.76H516.568V568.516ZM513.904 563.692L513.388 564.412C512.332 563.944 511.264 562.96 510.82 561.856C510.508 562.984 509.38 564.124 508.24 564.7L507.676 563.992C509.068 563.38 510.34 561.952 510.34 560.26V558.952H511.264V560.224C511.264 561.976 512.668 563.236 513.904 563.692ZM526.999 564.628H526.087V561.868H524.755V564.568H523.879V558.544H524.755V561.112H526.087V558.352H526.999V564.628ZM519.547 563.248H519.847C521.047 563.248 522.259 563.164 523.075 562.984L523.207 563.74C522.175 563.944 520.759 564.028 519.319 564.028H518.647V559.132H522.703V559.888H519.547V561.136H522.535V561.868H519.547V563.248ZM519.919 565.18H526.999V568.84H526.075V565.948H519.919V565.18ZM541.446 563.356H539.754V568.84H538.842V558.352H539.754V562.588H541.446V563.356ZM537.846 565.588L537.27 566.284C536.19 565.54 535.014 564.292 534.594 563.02C534.222 564.328 533.202 565.66 531.966 566.524L531.378 565.816C532.902 564.88 534.138 562.996 534.138 561.136V559.276H535.074V561.112C535.074 563.02 536.394 564.736 537.846 565.588ZM551.757 562.324H550.137V565.096H549.225V558.352H550.137V561.556H551.757V562.324ZM550.257 567.016C550.257 568.132 549.045 568.828 546.777 568.828C544.509 568.828 543.309 568.144 543.309 567.016C543.309 565.876 544.509 565.18 546.777 565.18C549.045 565.18 550.257 565.888 550.257 567.016ZM546.777 565.96C545.193 565.96 544.257 566.368 544.257 567.016C544.257 567.688 545.193 568.072 546.777 568.072C548.361 568.072 549.309 567.7 549.309 567.016C549.309 566.344 548.361 565.96 546.777 565.96ZM546.549 559.348H543.525V558.58H546.549V559.348ZM548.037 560.812H542.025V560.056H548.037V560.812ZM547.401 562.996C547.401 564.04 546.381 564.712 545.013 564.712C543.645 564.712 542.625 564.04 542.625 562.996C542.625 561.916 543.633 561.268 545.013 561.268C546.381 561.268 547.401 561.916 547.401 562.996ZM546.489 562.996C546.489 562.36 545.817 561.988 545.013 561.988C544.221 561.988 543.525 562.36 543.525 562.996C543.525 563.596 544.233 563.992 545.013 563.992C545.817 563.992 546.489 563.596 546.489 562.996Z" fill="#999999"/>
<rect x="24.5" y="583.5" width="135" height="55" rx="5.5" fill="white"/>
<rect x="24.5" y="583.5" width="135" height="55" rx="5.5" stroke="#E0E0E0"/>
<path d="M45.056 617.52C42.848 617.52 41.12 616.016 41.12 612.384V611.488C41.12 607.696 42.96 606.416 45.072 606.416C47.168 606.416 48.896 607.696 48.896 611.424V612.4C48.896 616.032 47.232 617.52 45.056 617.52ZM45.056 616.464C46.704 616.464 47.6 615.344 47.6 612.592V611.408C47.6 608.704 46.72 607.472 45.072 607.472C43.392 607.472 42.48 608.64 42.48 611.328V612.512C42.48 615.184 43.376 616.464 45.056 616.464ZM52.7859 617.392V607.872L50.8019 608.336V607.6L53.3299 606.416H54.0019V617.392H52.7859ZM60.6966 617.52C58.4886 617.52 56.7606 616.016 56.7606 612.384V611.488C56.7606 607.696 58.6006 606.416 60.7126 606.416C62.8086 606.416 64.5366 607.696 64.5366 611.424V612.4C64.5366 616.032 62.8726 617.52 60.6966 617.52ZM60.6966 616.464C62.3446 616.464 63.2406 615.344 63.2406 612.592V611.408C63.2406 608.704 62.3606 607.472 60.7126 607.472C59.0326 607.472 58.1206 608.64 58.1206 611.328V612.512C58.1206 615.184 59.0166 616.464 60.6966 616.464Z" fill="#999999"/>
<path d="M128 608L134 614L140 608" stroke="#CCCCCC" stroke-miterlimit="3" stroke-linecap="round" stroke-linejoin="round"/>
<rect x="168.5" y="583.5" width="383" height="55" rx="5.5" fill="white"/>
<rect x="168.5" y="583.5" width="383" height="55" rx="5.5" stroke="#E0E0E0"/>
<path d="M195.888 608.816C195.888 610.608 194.016 611.84 190.912 611.84C187.824 611.84 185.952 610.624 185.952 608.816C185.952 606.992 187.824 605.776 190.912 605.776C194.016 605.776 195.888 606.992 195.888 608.816ZM189.088 619.12H187.872V614.16H184.608V613.136H197.232V614.16H193.92V619.12H192.704V614.16H189.088V619.12ZM190.912 606.848C188.592 606.848 187.152 607.616 187.152 608.816C187.152 610 188.592 610.768 190.912 610.768C193.264 610.768 194.688 610 194.688 608.816C194.688 607.616 193.264 606.848 190.912 606.848ZM210.244 619.12H209.044V611.664H207.172V618.4H205.988V605.472H207.172V610.64H209.044V605.136H210.244V619.12ZM200.1 614.464H200.516C201.924 614.464 204.02 614.368 205.204 614.112L205.316 615.104C203.988 615.36 201.636 615.52 199.812 615.52H198.884V606.848H204.308V607.872H200.1V614.464ZM224.92 613.936H212.296V612.912H217.976V611.248H213.464V610.256H215.768L215.336 607.568L216.6 607.408L216.92 610.256H220.216L220.584 607.376L221.832 607.552L221.384 610.256H223.688V611.248H219.192V612.912H224.92V613.936ZM223.464 618.688H213.864V614.928H215.08V617.664H223.464V618.688ZM223.688 606.848H213.448V605.84H223.688V606.848ZM240.55 610.16H238.102V609.136H240.55V605.136H241.766V615.328H240.55V610.16ZM242.118 618.656H232.694V614.4H233.91V617.648H242.118V618.656ZM237.366 613.168H230.87V606.064H232.102V608.608H236.134V606.064H237.366V613.168ZM236.134 612.16V609.616H232.102V612.16H236.134ZM255.002 612.208C255.002 613.648 253.482 614.496 251.098 614.592V616.448H256.81V617.472H244.186V616.448H249.882V614.592C247.514 614.48 246.026 613.632 246.026 612.208C246.026 610.656 247.786 609.808 250.506 609.808C253.242 609.808 255.002 610.656 255.002 612.208ZM253.722 612.208C253.722 611.216 252.154 610.8 250.506 610.8C248.874 610.8 247.306 611.216 247.306 612.208C247.306 613.2 248.874 613.616 250.506 613.616C252.17 613.616 253.722 613.2 253.722 612.208ZM256.218 609.056H244.794V608.032H256.218V609.056ZM253.002 606.88H247.962V605.824H253.002V606.88ZM270.654 612.592H258.03V611.648H270.654V612.592ZM269.598 618.864H259.486V615.76H267.95V614.592H259.502V613.696H269.166V616.624H260.702V617.904H269.598V618.864ZM269.358 610.544H259.63V607.648H267.87V606.56H259.614V605.6H269.086V608.528H260.846V609.632H269.358V610.544ZM287.501 612.624H286.285V605.136H287.501V612.624ZM287.517 618.928H278.493V613.392H279.709V615.168H286.301V613.392H287.517V618.928ZM286.301 617.936V616.16H279.709V617.936H286.301ZM280.045 605.824C282.013 605.824 283.629 607.104 283.629 609.088C283.629 611.088 282.013 612.336 280.045 612.336C278.093 612.336 276.445 611.088 276.445 609.104C276.445 607.136 278.077 605.824 280.045 605.824ZM280.045 606.88C278.669 606.88 277.661 607.776 277.661 609.088C277.661 610.432 278.669 611.328 280.045 611.328C281.469 611.328 282.413 610.432 282.413 609.104C282.413 607.792 281.485 606.88 280.045 606.88ZM297.297 611.952L297.409 612.912C296.065 613.136 293.697 613.232 292.065 613.232H290.417V608.96H295.425V606.96H290.417V605.952H296.641V609.952H291.633V612.24H292.113C294.001 612.24 295.953 612.192 297.297 611.952ZM301.345 613.76H300.129V611.136H297.569V610.144H300.129V608.256H297.569V607.248H300.129V605.136H301.345V613.76ZM291.905 614.528H301.345V619.248H300.129V615.536H291.905V614.528ZM315.556 619.12H314.356V611.872H312.676V618.416H311.492V605.472H312.676V610.848H314.356V605.136H315.556V619.12ZM310.436 613.152C310.436 614.832 309.188 615.936 307.38 615.936C305.588 615.936 304.324 614.752 304.324 613.152C304.324 611.456 305.588 610.352 307.38 610.352C309.188 610.352 310.436 611.472 310.436 613.152ZM309.268 613.152C309.268 612.08 308.484 611.376 307.38 611.376C306.276 611.376 305.508 612.08 305.508 613.152C305.508 614.24 306.276 614.928 307.38 614.928C308.484 614.928 309.268 614.208 309.268 613.152ZM310.692 609.552H303.732V608.544H310.692V609.552ZM309.188 607.264H305.364V606.208H309.188V607.264ZM329.64 610.768L329.064 611.792C326.776 611.392 324.552 609.984 323.912 608.672C323.352 609.984 321.176 611.424 318.792 611.824L318.232 610.8C320.52 610.56 323.224 609.088 323.288 607.136H318.76V606.128H329.064V607.136H324.568C324.632 609.104 327.496 610.528 329.64 610.768ZM324.504 619.12H323.288V614.112H317.608V613.088H330.232V614.112H324.504V619.12ZM343.292 619.12H342.092V605.136H343.292V619.12ZM340.524 618.416H339.34V611.2H336.86V610.176H339.34V605.472H340.524V618.416ZM338.492 614.704L337.74 615.6C336.668 614.832 335.196 613.168 334.748 611.584C334.444 613.184 333.292 615.008 331.9 616.016L331.148 615.104C332.732 614.096 334.14 611.712 334.14 608.976V606.432H335.34V608.944C335.34 611.664 336.972 613.696 338.492 614.704ZM356.64 609.696C356.64 611.856 354.624 613.296 351.584 613.296C348.576 613.296 346.56 611.856 346.56 609.696C346.56 607.536 348.576 606.064 351.584 606.064C354.64 606.064 356.64 607.536 356.64 609.696ZM355.472 609.696C355.472 608.128 353.936 607.072 351.584 607.072C349.264 607.072 347.728 608.128 347.728 609.696C347.728 611.264 349.264 612.32 351.584 612.32C353.92 612.32 355.472 611.264 355.472 609.696ZM357.92 617.344H345.296V616.32H348.416V613.712L349.632 613.68V616.32H353.536V613.68L354.752 613.712V616.32H357.92V617.344ZM359.203 617.728V616.304H360.595V617.728H359.203Z" fill="#999999"/>
<path d="M36.528 677.512C36.528 679.096 34.752 680.088 31.76 680.088C28.768 680.088 27.008 679.096 27.008 677.512C27.008 675.928 28.768 674.936 31.76 674.936C34.752 674.936 36.528 675.928 36.528 677.512ZM36.4 674.968H35.184V670.856H33.44V674.28H32.256V666.392H33.44V669.832H35.184V666.136H36.4V674.968ZM31.76 675.96C29.632 675.96 28.288 676.568 28.288 677.512C28.288 678.472 29.632 679.08 31.76 679.08C33.904 679.08 35.232 678.472 35.232 677.512C35.232 676.568 33.904 675.96 31.76 675.96ZM31.68 672.808L31.024 673.736C29.776 673.144 28.576 671.912 28.096 670.824C27.744 671.96 26.528 673.464 25.232 674.216L24.48 673.288C25.968 672.488 27.472 670.792 27.472 668.696V666.952H28.656V668.664C28.656 670.808 30.352 672.232 31.68 672.808ZM49.8758 673.208H48.6598V666.136H49.8758V673.208ZM50.3878 679.928H40.8198V676.392H48.6598V674.936H40.7718V673.944H49.8758V677.336H42.0358V678.936H50.3878V679.928ZM42.4678 666.568C44.4678 666.568 46.0838 667.832 46.0838 669.736C46.0838 671.624 44.4678 672.856 42.4678 672.856C40.4678 672.856 38.8198 671.64 38.8198 669.736C38.8198 667.848 40.4518 666.568 42.4678 666.568ZM42.4678 667.624C41.0918 667.624 40.0038 668.472 40.0038 669.72C40.0038 670.968 41.0758 671.8 42.4678 671.8C43.9238 671.8 44.8998 670.968 44.8998 669.736C44.8998 668.488 43.9238 667.624 42.4678 667.624Z" fill="black"/>
<path d="M516.34 675.972H515.428V671.772H513.196V671.004H515.428V668.352H516.34V675.972ZM516.568 678.516H509.596V675.312H510.508V677.76H516.568V678.516ZM513.904 673.692L513.388 674.412C512.332 673.944 511.264 672.96 510.82 671.856C510.508 672.984 509.38 674.124 508.24 674.7L507.676 673.992C509.068 673.38 510.34 671.952 510.34 670.26V668.952H511.264V670.224C511.264 671.976 512.668 673.236 513.904 673.692ZM526.999 674.628H526.087V671.868H524.755V674.568H523.879V668.544H524.755V671.112H526.087V668.352H526.999V674.628ZM519.547 673.248H519.847C521.047 673.248 522.259 673.164 523.075 672.984L523.207 673.74C522.175 673.944 520.759 674.028 519.319 674.028H518.647V669.132H522.703V669.888H519.547V671.136H522.535V671.868H519.547V673.248ZM519.919 675.18H526.999V678.84H526.075V675.948H519.919V675.18ZM541.446 673.356H539.754V678.84H538.842V668.352H539.754V672.588H541.446V673.356ZM537.846 675.588L537.27 676.284C536.19 675.54 535.014 674.292 534.594 673.02C534.222 674.328 533.202 675.66 531.966 676.524L531.378 675.816C532.902 674.88 534.138 672.996 534.138 671.136V669.276H535.074V671.112C535.074 673.02 536.394 674.736 537.846 675.588ZM551.757 672.324H550.137V675.096H549.225V668.352H550.137V671.556H551.757V672.324ZM550.257 677.016C550.257 678.132 549.045 678.828 546.777 678.828C544.509 678.828 543.309 678.144 543.309 677.016C543.309 675.876 544.509 675.18 546.777 675.18C549.045 675.18 550.257 675.888 550.257 677.016ZM546.777 675.96C545.193 675.96 544.257 676.368 544.257 677.016C544.257 677.688 545.193 678.072 546.777 678.072C548.361 678.072 549.309 677.7 549.309 677.016C549.309 676.344 548.361 675.96 546.777 675.96ZM546.549 669.348H543.525V668.58H546.549V669.348ZM548.037 670.812H542.025V670.056H548.037V670.812ZM547.401 672.996C547.401 674.04 546.381 674.712 545.013 674.712C543.645 674.712 542.625 674.04 542.625 672.996C542.625 671.916 543.633 671.268 545.013 671.268C546.381 671.268 547.401 671.916 547.401 672.996ZM546.489 672.996C546.489 672.36 545.817 671.988 545.013 671.988C544.221 671.988 543.525 672.36 543.525 672.996C543.525 673.596 544.233 673.992 545.013 673.992C545.817 673.992 546.489 673.596 546.489 672.996Z" fill="#999999"/>
<rect x="24.5" y="693.5" width="135" height="55" rx="5.5" fill="white"/>
<rect x="24.5" y="693.5" width="135" height="55" rx="5.5" stroke="#E0E0E0"/>
<path d="M42.864 727.392V717.872L40.88 718.336V717.6L43.408 716.416H44.08V727.392H42.864ZM49.9588 716.416C52.3588 716.416 53.6868 718.064 53.6868 721.104V721.808C53.6868 725.552 52.1828 727.52 49.5908 727.52C48.4868 727.52 47.4788 727.184 46.9828 726.848L47.3348 725.92C47.7988 726.192 48.6628 726.448 49.5268 726.448C51.2868 726.448 52.2948 725.328 52.4068 722.32C51.8308 722.976 50.9508 723.504 49.7668 723.504C47.9588 723.504 46.4868 722.192 46.4868 720.144C46.4868 718.128 47.7828 716.416 49.9588 716.416ZM49.9748 717.472C48.5828 717.472 47.7508 718.544 47.7508 720.032C47.7508 721.712 48.7268 722.432 50.0228 722.432C51.0468 722.432 51.9588 721.712 52.4068 721.088V720.784C52.4068 718.784 51.6868 717.472 49.9748 717.472ZM58.6775 716.416C61.0775 716.416 62.4055 718.064 62.4055 721.104V721.808C62.4055 725.552 60.9015 727.52 58.3095 727.52C57.2055 727.52 56.1975 727.184 55.7015 726.848L56.0535 725.92C56.5175 726.192 57.3815 726.448 58.2455 726.448C60.0055 726.448 61.0135 725.328 61.1255 722.32C60.5495 722.976 59.6695 723.504 58.4855 723.504C56.6775 723.504 55.2055 722.192 55.2055 720.144C55.2055 718.128 56.5015 716.416 58.6775 716.416ZM58.6935 717.472C57.3015 717.472 56.4695 718.544 56.4695 720.032C56.4695 721.712 57.4455 722.432 58.7415 722.432C59.7655 722.432 60.6775 721.712 61.1255 721.088V720.784C61.1255 718.784 60.4055 717.472 58.6935 717.472ZM67.8889 727.536C65.6009 727.536 64.1449 726.352 64.1449 724.592C64.1449 723.184 65.3609 722.208 66.5449 721.744C65.3929 721.296 64.4489 720.48 64.4489 719.104C64.4489 717.552 65.7769 716.4 67.8409 716.4C69.8569 716.4 71.2169 717.376 71.2169 719.04C71.2169 720.336 70.1449 721.088 69.0409 721.664C70.3689 722.096 71.6489 722.864 71.6489 724.48C71.6489 726.192 70.2089 727.536 67.8889 727.536ZM67.8729 726.48C69.2489 726.48 70.2889 725.712 70.2889 724.608C70.2889 723.296 69.4089 722.816 67.5529 722.224C66.4969 722.592 65.4249 723.36 65.4249 724.544C65.4249 725.728 66.4489 726.48 67.8729 726.48ZM68.0969 721.2C69.1049 720.752 69.8889 720.112 69.8889 719.088C69.8889 718.144 69.1849 717.456 67.8569 717.456C66.6249 717.456 65.8089 718.048 65.8089 719.072C65.8089 720.176 66.6729 720.832 68.0969 721.2ZM84.948 728.704H75.54V724.592H76.756V727.696H84.948V728.704ZM83.316 718.144H78.868V717.168H83.316V715.136H84.532V725.28H83.316V720.784H78.868V719.808H83.316V718.144ZM81.076 721.936L81.188 722.96C79.7 723.28 76.708 723.472 74.884 723.472H73.844V716.08H75.044V722.432C76.916 722.416 79.476 722.288 81.076 721.936Z" fill="#999999"/>
<path d="M128 718L134 724L140 718" stroke="#CCCCCC" stroke-miterlimit="3" stroke-linecap="round" stroke-linejoin="round"/>
<rect x="168.5" y="693.5" width="187" height="55" rx="5.5" fill="white"/>
<rect x="168.5" y="693.5" width="187" height="55" rx="5.5" stroke="#E0E0E0"/>
<path d="M186.864 727.392V717.872L184.88 718.336V717.6L187.408 716.416H188.08V727.392H186.864ZM202.343 729.104H192.375V726.096H200.599V725.024H192.359V724.096H201.815V726.96H193.607V728.144H202.343V729.104ZM198.055 717.776C198.055 719.168 196.599 720.08 194.631 720.08C192.663 720.08 191.223 719.184 191.223 717.76C191.223 716.4 192.663 715.456 194.631 715.456C196.583 715.456 198.055 716.336 198.055 717.776ZM201.815 723.392H200.599V722.88H197.527V721.984H200.599V715.136H201.815V723.392ZM195.191 723.408H193.975V721.728C192.759 721.776 191.607 721.808 190.439 721.824L190.247 720.8C191.879 720.8 193.351 720.752 194.871 720.688C196.599 720.624 197.959 720.544 199.319 720.384L199.431 721.312C198.487 721.408 196.775 721.568 195.191 721.648V723.408ZM196.839 717.776C196.839 716.912 195.959 716.432 194.631 716.432C193.351 716.432 192.439 716.912 192.439 717.776C192.439 718.624 193.351 719.072 194.631 719.072C195.911 719.072 196.839 718.624 196.839 717.776Z" fill="#999999"/>
<path d="M324 718L330 724L336 718" stroke="#CCCCCC" stroke-miterlimit="3" stroke-linecap="round" stroke-linejoin="round"/>
<rect x="364.5" y="693.5" width="187" height="55" rx="5.5" fill="white"/>
<rect x="364.5" y="693.5" width="187" height="55" rx="5.5" stroke="#E0E0E0"/>
<path d="M382.864 727.392V717.872L380.88 718.336V717.6L383.408 716.416H384.08V727.392H382.864ZM397.751 722.208H396.535V715.136H397.751V722.208ZM398.263 728.928H388.695V725.392H396.535V723.936H388.647V722.944H397.751V726.336H389.911V727.936H398.263V728.928ZM390.343 715.568C392.343 715.568 393.959 716.832 393.959 718.736C393.959 720.624 392.343 721.856 390.343 721.856C388.343 721.856 386.695 720.64 386.695 718.736C386.695 716.848 388.327 715.568 390.343 715.568ZM390.343 716.624C388.967 716.624 387.879 717.472 387.879 718.72C387.879 719.968 388.951 720.8 390.343 720.8C391.799 720.8 392.775 719.968 392.775 718.736C392.775 717.488 391.799 716.624 390.343 716.624Z" fill="#999999"/>
<path d="M520 718L526 724L532 718" stroke="#CCCCCC" stroke-miterlimit="3" stroke-linecap="round" stroke-linejoin="round"/>
<rect x="24" y="780" width="528" height="56" rx="6" fill="#2D71F7"/>
<path d="M264.261 808.466C264.261 809.762 263.181 810.806 261.507 811.148V812.084C262.767 812.012 264.027 811.904 265.323 811.742C265.377 812.354 265.413 812.966 265.485 813.578C262.641 813.992 257.943 814.262 255.387 814.262C255.297 813.614 255.207 812.912 255.135 812.264C256.467 812.264 257.799 812.246 259.131 812.21V811.166C257.421 810.842 256.323 809.762 256.323 808.466C256.323 806.9 257.907 805.658 260.283 805.658C262.641 805.658 264.261 806.9 264.261 808.466ZM268.473 800.384V816.422H266.079V800.384H268.473ZM265.017 805.388H255.567V803.606H265.017V805.388ZM258.033 802.94V801.158H262.659V802.94H258.033ZM261.849 808.466C261.849 807.818 261.165 807.332 260.283 807.332C259.401 807.332 258.753 807.818 258.753 808.466C258.753 809.096 259.401 809.546 260.283 809.546C261.165 809.546 261.849 809.096 261.849 808.466ZM276.848 812.246H274.886V814.172H284.462V816.026H272.474V811.346H274.472V809.51C273.068 809.564 271.736 809.582 270.692 809.582C270.584 808.934 270.494 808.34 270.404 807.692C274.598 807.692 278.774 807.458 280.88 807.17C280.916 807.782 280.934 808.376 280.988 808.988C279.782 809.186 278.342 809.294 276.848 809.402V812.246ZM279.872 804.074C279.872 805.856 278.216 807.08 275.804 807.08C273.374 807.08 271.736 805.856 271.736 804.092C271.736 802.292 273.374 801.032 275.804 801.032C278.216 801.032 279.872 802.292 279.872 804.074ZM278.972 811.454V809.816H281.888V800.384H284.264V812.732H281.888V811.454H278.972ZM277.478 804.074C277.478 803.318 276.74 802.796 275.804 802.796C274.85 802.796 274.13 803.318 274.13 804.074C274.13 804.83 274.85 805.316 275.804 805.316C276.74 805.316 277.478 804.83 277.478 804.074ZM305.736 808.394H303.432V816.422H301.056V800.384H303.432V806.432H305.736V808.394ZM299.274 802.04C299.148 806.738 297.24 810.788 292.02 813.65L290.688 811.778C294.18 810.14 296.43 807.062 296.754 804.002H291.66V802.04H299.274ZM319.78 816.224H309.034V809.6H311.428V811.166H317.386V809.6H319.78V816.224ZM317.386 814.352V813.002H311.428V814.352H317.386ZM319.798 808.88H317.386V800.384H319.798V808.88ZM306.982 804.83C306.982 802.598 308.854 801.104 311.266 801.104C313.714 801.104 315.604 802.598 315.604 804.83C315.604 807.062 313.714 808.592 311.266 808.592C308.854 808.592 306.982 807.062 306.982 804.83ZM309.268 804.848C309.268 805.892 310.114 806.648 311.266 806.648C312.454 806.648 313.318 805.892 313.318 804.848C313.318 803.804 312.436 803.012 311.266 803.012C310.114 803.012 309.268 803.786 309.268 804.848Z" fill="white"/>
</svg>
